<?xml version="1.0" encoding="UTF-8" standalone="no"?>
<svg
   xmlns:dc="http://purl.org/dc/elements/1.1/"
   xmlns:cc="http://creativecommons.org/ns#"
   xmlns:rdf="http://www.w3.org/1999/02/22-rdf-syntax-ns#"
   xmlns:svg="http://www.w3.org/2000/svg"
   xmlns="http://www.w3.org/2000/svg"
   xmlns:sodipodi="http://sodipodi.sourceforge.net/DTD/sodipodi-0.dtd"
   xmlns:inkscape="http://www.inkscape.org/namespaces/inkscape"
   inkscape:version="1.0 (4035a4fb49, 2020-05-01)"
   sodipodi:docname="save_icon.svg"
   id="svg6"
   version="1.1"
   viewBox="0 0 512 512">
  <metadata
     id="metadata12">
    <rdf:RDF>
      <cc:Work
         rdf:about="">
        <dc:format>image/svg+xml</dc:format>
        <dc:type
           rdf:resource="http://purl.org/dc/dcmitype/StillImage" />
        <dc:title></dc:title>
      </cc:Work>
    </rdf:RDF>
  </metadata>
  <defs
     id="defs10" />
  <sodipodi:namedview
     inkscape:current-layer="svg6"
     inkscape:window-maximized="1"
     inkscape:window-y="-8"
     inkscape:window-x="-8"
     inkscape:cy="256"
     inkscape:cx="256"
     inkscape:zoom="1.6796875"
     showgrid="false"
     id="namedview8"
     inkscape:window-height="1057"
     inkscape:window-width="1920"
     inkscape:pageshadow="2"
     inkscape:pageopacity="0"
     guidetolerance="10"
     gridtolerance="10"
     objecttolerance="10"
     borderopacity="1"
     bordercolor="#666666"
     pagecolor="#ffffff" />
  <path
     style="fill:#f9f9f9"
     id="path2"
     class="ci-primary"
     d="M472.971,122.344,373.656,23.029A23.838,23.838,0,0,0,356.687,16H56A24.028,24.028,0,0,0,32,40V472a24.028,24.028,0,0,0,24,24H456a24.028,24.028,0,0,0,24-24V139.313A23.838,23.838,0,0,0,472.971,122.344ZM320,48v96H176V48ZM448,464H64V48h80V176H352V48h1.373L448,142.627Z"
     fill="var(--ci-primary-color, currentColor)" />
  <path
     style="fill:#f9f9f9"
     id="path4"
     class="ci-primary"
     d="M252,224a92,92,0,1,0,92,92A92.1,92.1,0,0,0,252,224Zm0,152a60,60,0,1,1,60-60A60.068,60.068,0,0,1,252,376Z"
     fill="var(--ci-primary-color, currentColor)" />
</svg>
